<?xml version="1.0" encoding="UTF-8" standalone="no"?>
<!-- Created with Inkscape (http://www.inkscape.org/) -->

<svg
   xmlns:dc="http://purl.org/dc/elements/1.1/"
   xmlns:cc="http://creativecommons.org/ns#"
   xmlns:rdf="http://www.w3.org/1999/02/22-rdf-syntax-ns#"
   xmlns:svg="http://www.w3.org/2000/svg"
   xmlns="http://www.w3.org/2000/svg"
   xmlns:sodipodi="http://sodipodi.sourceforge.net/DTD/sodipodi-0.dtd"
   xmlns:inkscape="http://www.inkscape.org/namespaces/inkscape"
   width="192"
   height="192"
   viewBox="0 0 50.799997 50.800001"
   version="1.1"
   id="svg940"
   inkscape:version="0.92.2 2405546, 2018-03-11"
   sodipodi:docname="frappe.svg">
  <defs
     id="defs934" />
  <sodipodi:namedview
     id="base"
     pagecolor="#ffffff"
     bordercolor="#666666"
     borderopacity="1.0"
     inkscape:pageopacity="0.0"
     inkscape:pageshadow="2"
     inkscape:zoom="1.4142136"
     inkscape:cx="183.62764"
     inkscape:cy="103.78092"
     inkscape:document-units="px"
     inkscape:current-layer="layer5"
     showgrid="false"
     units="px"
     showguides="true"
     inkscape:guide-bbox="true"
     inkscape:window-width="1440"
     inkscape:window-height="882"
     inkscape:window-x="0"
     inkscape:window-y="0"
     inkscape:window-maximized="0"
     inkscape:measure-start="160,86.8305"
     inkscape:measure-end="160.767,86.8305">
    <sodipodi:guide
       position="2.1166666,0"
       orientation="1,0"
       id="guide1539"
       inkscape:locked="false"
       inkscape:label=""
       inkscape:color="rgb(0,0,255)" />
    <sodipodi:guide
       position="48.683332,0"
       orientation="1,0"
       id="guide1541"
       inkscape:locked="false"
       inkscape:label=""
       inkscape:color="rgb(0,0,255)" />
    <sodipodi:guide
       position="0,2.1166666"
       orientation="0,1"
       id="guide1543"
       inkscape:locked="false"
       inkscape:label=""
       inkscape:color="rgb(0,0,255)" />
    <sodipodi:guide
       position="0,48.683332"
       orientation="0,1"
       id="guide1545"
       inkscape:locked="false"
       inkscape:label=""
       inkscape:color="rgb(0,0,255)" />
    <sodipodi:guide
       position="5.2916666,0"
       orientation="1,0"
       id="guide1547"
       inkscape:locked="false"
       inkscape:label=""
       inkscape:color="rgb(0,0,255)" />
    <sodipodi:guide
       position="45.508332,0"
       orientation="1,0"
       id="guide1549"
       inkscape:locked="false"
       inkscape:label=""
       inkscape:color="rgb(0,0,255)" />
    <sodipodi:guide
       position="0,5.2916666"
       orientation="0,1"
       id="guide1551"
       inkscape:locked="false"
       inkscape:label=""
       inkscape:color="rgb(0,0,255)" />
    <sodipodi:guide
       position="0,45.508332"
       orientation="0,1"
       id="guide1553"
       inkscape:locked="false"
       inkscape:label=""
       inkscape:color="rgb(0,0,255)" />
    <sodipodi:guide
       position="8.4666665,0"
       orientation="1,0"
       id="guide1555"
       inkscape:locked="false"
       inkscape:label=""
       inkscape:color="rgb(0,0,255)" />
    <sodipodi:guide
       position="42.333332,0"
       orientation="1,0"
       id="guide1557"
       inkscape:locked="false"
       inkscape:label=""
       inkscape:color="rgb(0,0,255)" />
    <sodipodi:guide
       position="42.333332,0"
       orientation="0,1"
       id="guide1559"
       inkscape:locked="false"
       inkscape:label=""
       inkscape:color="rgb(0,0,255)" />
    <sodipodi:guide
       position="0,8.4666665"
       orientation="0,1"
       id="guide1561"
       inkscape:locked="false"
       inkscape:label=""
       inkscape:color="rgb(0,0,255)" />
    <sodipodi:guide
       position="0,42.333332"
       orientation="0,1"
       id="guide2468"
       inkscape:locked="false"
       inkscape:label=""
       inkscape:color="rgb(0,0,255)" />
  </sodipodi:namedview>
  <metadata
     id="metadata937">
    <rdf:RDF>
      <cc:Work
         rdf:about="">
        <dc:format>image/svg+xml</dc:format>
        <dc:type
           rdf:resource="http://purl.org/dc/dcmitype/StillImage" />
        <dc:title></dc:title>
      </cc:Work>
    </rdf:RDF>
  </metadata>
  <g
     inkscape:label="Layer 1"
     inkscape:groupmode="layer"
     id="layer1"
     transform="translate(0,-246.19998)"
     style="display:none">
    <g
       transform="matrix(0.08444932,0,0,0.08444932,-10.153164,246.56498)"
       id="g925">
      <path
         style="fill:#61dafb"
         inkscape:connector-curvature="0"
         d="m 666.3,296.5 c 0,-32.5 -40.7,-63.3 -103.1,-82.4 14.4,-63.6 8,-114.2 -20.2,-130.4 -6.5,-3.8 -14.1,-5.6 -22.4,-5.6 v 22.3 c 4.6,0 8.3,0.9 11.4,2.6 13.6,7.8 19.5,37.5 14.9,75.7 -1.1,9.4 -2.9,19.3 -5.1,29.4 -19.6,-4.8 -41,-8.5 -63.5,-10.9 -13.5,-18.5 -27.5,-35.3 -41.6,-50 32.6,-30.3 63.2,-46.9 84,-46.9 V 78 c 0,0 0,0 0,0 -27.5,0 -63.5,19.6 -99.9,53.6 C 384.4,97.8 348.4,78.4 320.9,78.4 v 22.3 c 20.7,0 51.4,16.5 84,46.6 -14,14.7 -28,31.4 -41.3,49.9 -22.6,2.4 -44,6.1 -63.6,11 -2.3,-10 -4,-19.7 -5.2,-29 -4.7,-38.2 1.1,-67.9 14.6,-75.8 3,-1.8 6.9,-2.6 11.5,-2.6 V 78.5 c 0,0 0,0 0,0 -8.4,0 -16,1.8 -22.6,5.6 -28.1,16.2 -34.4,66.7 -19.9,130.1 -62.2,19.2 -102.7,49.9 -102.7,82.3 0,32.5 40.7,63.3 103.1,82.4 -14.4,63.6 -8,114.2 20.2,130.4 6.5,3.8 14.1,5.6 22.5,5.6 27.5,0 63.5,-19.6 99.9,-53.6 36.4,33.8 72.4,53.2 99.9,53.2 8.4,0 16,-1.8 22.6,-5.6 28.1,-16.2 34.4,-66.7 19.9,-130.1 62,-19.1 102.5,-49.9 102.5,-82.3 z M 536.1,229.8 c -3.7,12.9 -8.3,26.2 -13.5,39.5 -4.1,-8 -8.4,-16 -13.1,-24 -4.6,-8 -9.5,-15.8 -14.4,-23.4 14.2,2.1 27.9,4.7 41,7.9 z m -45.8,106.5 c -7.8,13.5 -15.8,26.3 -24.1,38.2 -14.9,1.3 -30,2 -45.2,2 -15.1,0 -30.2,-0.7 -45,-1.9 -8.3,-11.9 -16.4,-24.6 -24.2,-38 -7.6,-13.1 -14.5,-26.4 -20.8,-39.8 6.2,-13.4 13.2,-26.8 20.7,-39.9 7.8,-13.5 15.8,-26.3 24.1,-38.2 14.9,-1.3 30,-2 45.2,-2 15.1,0 30.2,0.7 45,1.9 8.3,11.9 16.4,24.6 24.2,38 7.6,13.1 14.5,26.4 20.8,39.8 -6.3,13.4 -13.2,26.8 -20.7,39.9 z m 32.3,-13 c 5.4,13.4 10,26.8 13.8,39.8 -13.1,3.2 -26.9,5.9 -41.2,8 4.9,-7.7 9.8,-15.6 14.4,-23.7 4.6,-8 8.9,-16.1 13,-24.1 z M 421.2,430 c -9.3,-9.6 -18.6,-20.3 -27.8,-32 9,0.4 18.2,0.7 27.5,0.7 9.4,0 18.7,-0.2 27.8,-0.7 -9,11.7 -18.3,22.4 -27.5,32 z m -74.4,-58.9 c -14.2,-2.1 -27.9,-4.7 -41,-7.9 3.7,-12.9 8.3,-26.2 13.5,-39.5 4.1,8 8.4,16 13.1,24 4.7,8 9.5,15.8 14.4,23.4 z M 420.7,163 c 9.3,9.6 18.6,20.3 27.8,32 -9,-0.4 -18.2,-0.7 -27.5,-0.7 -9.4,0 -18.7,0.2 -27.8,0.7 9,-11.7 18.3,-22.4 27.5,-32 z m -74,58.9 c -4.9,7.7 -9.8,15.6 -14.4,23.7 -4.6,8 -8.9,16 -13,24 -5.4,-13.4 -10,-26.8 -13.8,-39.8 13.1,-3.1 26.9,-5.8 41.2,-7.9 z m -90.5,125.2 c -35.4,-15.1 -58.3,-34.9 -58.3,-50.6 0,-15.7 22.9,-35.6 58.3,-50.6 8.6,-3.7 18,-7 27.7,-10.1 5.7,19.6 13.2,40 22.5,60.9 -9.2,20.8 -16.6,41.1 -22.2,60.6 -9.9,-3.1 -19.3,-6.5 -28,-10.2 z M 310,490 c -13.6,-7.8 -19.5,-37.5 -14.9,-75.7 1.1,-9.4 2.9,-19.3 5.1,-29.4 19.6,4.8 41,8.5 63.5,10.9 13.5,18.5 27.5,35.3 41.6,50 -32.6,30.3 -63.2,46.9 -84,46.9 -4.5,-0.1 -8.3,-1 -11.3,-2.7 z m 237.2,-76.2 c 4.7,38.2 -1.1,67.9 -14.6,75.8 -3,1.8 -6.9,2.6 -11.5,2.6 -20.7,0 -51.4,-16.5 -84,-46.6 14,-14.7 28,-31.4 41.3,-49.9 22.6,-2.4 44,-6.1 63.6,-11 2.3,10.1 4.1,19.8 5.2,29.1 z m 38.5,-66.7 c -8.6,3.7 -18,7 -27.7,10.1 -5.7,-19.6 -13.2,-40 -22.5,-60.9 9.2,-20.8 16.6,-41.1 22.2,-60.6 9.9,3.1 19.3,6.5 28.1,10.2 35.4,15.1 58.3,34.9 58.3,50.6 -0.1,15.7 -23,35.6 -58.4,50.6 z"
         id="path917" />
      <polygon
         style="fill:#61dafb"
         points=""
         id="polygon919" />
      <circle
         style="fill:#61dafb"
         cx="420.89999"
         cy="296.5"
         r="45.700001"
         id="circle921" />
      <polygon
         style="fill:#61dafb"
         points=""
         id="polygon923" />
    </g>
  </g>
  <g
     inkscape:groupmode="layer"
     id="layer2"
     inkscape:label="Layer 2"
     style="display:none">
    <g
       id="g2447"
       transform="matrix(0.99295833,0,0,0.99295833,-52.37097,0.96569204)">
      <g
         id="g1619"
         transform="matrix(0.35277776,0,0,-0.35277776,78.318996,43.836752)">
        <path
           d="m 0,0 c -1.46,0 -2.912,0.381 -4.19,1.121 l -13.338,7.892 c -1.991,1.114 -1.019,1.509 -0.362,1.738 2.657,0.922 3.195,1.135 6.031,2.743 0.295,0.167 0.687,0.103 0.992,-0.076 L -0.62,7.335 c 0.371,-0.206 0.895,-0.206 1.237,0 l 39.95,23.058 c 0.372,0.212 0.61,0.64 0.61,1.081 v 46.104 c 0,0.451 -0.238,0.872 -0.62,1.101 L 0.624,101.717 c -0.369,0.216 -0.859,0.216 -1.231,0 L -40.53,78.672 c -0.388,-0.222 -0.634,-0.657 -0.634,-1.094 V 31.474 c 0,-0.441 0.246,-0.859 0.63,-1.068 l 10.944,-6.323 c 5.938,-2.969 9.574,0.528 9.574,4.041 v 45.519 c 0,0.644 0.517,1.151 1.161,1.151 h 5.065 c 0.634,0 1.158,-0.507 1.158,-1.151 V 28.124 c 0,-7.925 -4.316,-12.47 -11.829,-12.47 -2.309,0 -4.127,0 -9.202,2.501 l -10.476,6.031 c -2.588,1.496 -4.19,4.293 -4.19,7.288 v 46.104 c 0,2.995 1.602,5.792 4.19,7.281 l 39.949,23.085 c 2.528,1.429 5.888,1.429 8.396,0 L 44.153,84.859 c 2.587,-1.496 4.196,-4.286 4.196,-7.281 V 31.474 c 0,-2.995 -1.609,-5.782 -4.196,-7.288 L 4.206,1.121 C 2.929,0.381 1.48,0 0,0"
           style="fill:#689f63;fill-opacity:1;fill-rule:nonzero;stroke:none"
           id="path1621"
           inkscape:connector-curvature="0" />
      </g>
      <g
         id="g1623"
         transform="matrix(0.35277776,0,0,-0.35277776,82.672345,32.631543)">
        <path
           d="m 0,0 c -17.482,0 -21.144,8.024 -21.144,14.755 0,0.64 0.514,1.151 1.154,1.151 h 5.165 c 0.577,0 1.058,-0.415 1.148,-0.978 0.78,-5.258 3.105,-7.912 13.677,-7.912 8.416,0 11.999,1.904 11.999,6.369 0,2.574 -1.016,4.485 -14.095,5.766 -10.931,1.081 -17.692,3.496 -17.692,12.24 0,8.061 6.794,12.868 18.186,12.868 12.798,0 19.131,-4.442 19.933,-13.972 0.03,-0.329 -0.086,-0.644 -0.305,-0.889 -0.219,-0.229 -0.524,-0.369 -0.846,-0.369 h -5.185 c -0.537,0 -1.012,0.382 -1.121,0.903 -1.244,5.533 -4.269,7.301 -12.476,7.301 -9.189,0 -10.257,-3.201 -10.257,-5.6 0,-2.906 1.26,-3.751 13.667,-5.393 C 14.085,24.617 19.917,22.319 19.917,13.69 19.917,4.986 12.659,0 0,0"
           style="fill:#689f63;fill-opacity:1;fill-rule:nonzero;stroke:none"
           id="path1625"
           inkscape:connector-curvature="0" />
      </g>
      <g
         id="g1627"
         transform="matrix(0.35277776,0,0,-0.35277776,99.833361,15.387237)">
        <path
           d="m 0,0 h 1.343 c 1.098,0 1.304,0.773 1.304,1.221 0,1.183 -0.816,1.183 -1.264,1.183 H 0 Z m -1.632,3.789 h 2.975 c 1.019,0 3.016,0 3.016,-2.283 0,-1.589 -1.019,-1.914 -1.632,-2.118 1.184,-0.081 1.264,-0.856 1.426,-1.955 0.083,-0.692 0.206,-1.875 0.448,-2.281 H 2.77 C 2.727,-4.442 2.441,-2.241 2.441,-2.12 2.322,-1.63 2.156,-1.387 1.546,-1.387 H 0.04 v -3.461 h -1.672 z m -3.563,-4.298 c 0,-3.586 2.893,-6.479 6.436,-6.479 3.586,0 6.478,2.954 6.478,6.479 0,3.584 -2.932,6.436 -6.478,6.436 -3.503,0 -6.436,-2.81 -6.436,-6.436 M 8.96,-0.531 c 0,-4.236 -3.464,-7.699 -7.699,-7.699 -4.197,0 -7.7,3.422 -7.7,7.699 0,4.359 3.586,7.701 7.7,7.701 4.156,0 7.699,-3.342 7.699,-7.701"
           style="fill:#689f63;fill-opacity:1;fill-rule:nonzero;stroke:none"
           id="path1629"
           inkscape:connector-curvature="0" />
      </g>
    </g>
  </g>
  <g
     inkscape:groupmode="layer"
     id="layer3"
     inkscape:label="Layer 3"
     style="display:none">
    <g
       transform="matrix(0.11480795,0,0,0.11480795,2.4408125,2.4384095)"
       id="g912">
      <g
         id="g850">
        <g
           id="g848">
          <rect
             style="fill:#e535ab"
             x="122"
             y="-0.40000001"
             transform="matrix(-0.866,-0.5,0.5,-0.866,163.3196,363.3136)"
             width="16.6"
             height="320.29999"
             id="rect846" />
        </g>
      </g>
      <g
         id="g856">
        <g
           id="g854">
          <rect
             style="fill:#e535ab"
             x="39.799999"
             y="272.20001"
             width="320.29999"
             height="16.6"
             id="rect852" />
        </g>
      </g>
      <g
         id="g862">
        <g
           id="g860">
          <rect
             style="fill:#e535ab"
             x="37.900002"
             y="312.20001"
             transform="matrix(-0.866,-0.5,0.5,-0.866,83.0693,663.3409)"
             width="185"
             height="16.6"
             id="rect858" />
        </g>
      </g>
      <g
         id="g868">
        <g
           id="g866">
          <rect
             style="fill:#e535ab"
             x="177.10001"
             y="71.099998"
             transform="matrix(-0.866,-0.5,0.5,-0.866,463.3409,283.0693)"
             width="185"
             height="16.6"
             id="rect864" />
        </g>
      </g>
      <g
         id="g874">
        <g
           id="g872">
          <rect
             style="fill:#e535ab"
             x="122.1"
             y="-13"
             transform="matrix(-0.5,-0.866,0.866,-0.5,126.7903,232.1221)"
             width="16.6"
             height="185"
             id="rect870" />
        </g>
      </g>
      <g
         id="g880">
        <g
           id="g878">
          <rect
             style="fill:#e535ab"
             x="109.6"
             y="151.60001"
             transform="matrix(-0.5,-0.866,0.866,-0.5,266.0828,473.3766)"
             width="320.29999"
             height="16.6"
             id="rect876" />
        </g>
      </g>
      <g
         id="g886">
        <g
           id="g884">
          <rect
             style="fill:#e535ab"
             x="52.5"
             y="107.5"
             width="16.6"
             height="185"
             id="rect882" />
        </g>
      </g>
      <g
         id="g892">
        <g
           id="g890">
          <rect
             style="fill:#e535ab"
             x="330.89999"
             y="107.5"
             width="16.6"
             height="185"
             id="rect888" />
        </g>
      </g>
      <g
         id="g898">
        <g
           id="g896">
          <rect
             style="fill:#e535ab"
             x="262.39999"
             y="240.10001"
             transform="matrix(-0.5,-0.866,0.866,-0.5,126.7953,714.2875)"
             width="14.5"
             height="160.89999"
             id="rect894" />
        </g>
      </g>
      <path
         style="fill:#e535ab"
         inkscape:connector-curvature="0"
         d="m 369.5,297.9 c -9.6,16.7 -31,22.4 -47.7,12.8 -16.7,-9.6 -22.4,-31 -12.8,-47.7 9.6,-16.7 31,-22.4 47.7,-12.8 16.8,9.7 22.5,31 12.8,47.7"
         id="path900" />
      <path
         style="fill:#e535ab"
         inkscape:connector-curvature="0"
         d="m 90.9,137 c -9.6,16.7 -31,22.4 -47.7,12.8 -16.7,-9.6 -22.4,-31 -12.8,-47.7 9.6,-16.7 31,-22.4 47.7,-12.8 16.7,9.7 22.4,31 12.8,47.7"
         id="path902" />
      <path
         style="fill:#e535ab"
         inkscape:connector-curvature="0"
         d="m 30.5,297.9 c -9.6,-16.7 -3.9,-38 12.8,-47.7 16.7,-9.6 38,-3.9 47.7,12.8 9.6,16.7 3.9,38 -12.8,47.7 -16.8,9.6 -38.1,3.9 -47.7,-12.8"
         id="path904" />
      <path
         style="fill:#e535ab"
         inkscape:connector-curvature="0"
         d="m 309.1,137 c -9.6,-16.7 -3.9,-38 12.8,-47.7 16.7,-9.6 38,-3.9 47.7,12.8 9.6,16.7 3.9,38 -12.8,47.7 -16.7,9.6 -38.1,3.9 -47.7,-12.8"
         id="path906" />
      <path
         style="fill:#e535ab"
         inkscape:connector-curvature="0"
         d="m 200,395.8 c -19.3,0 -34.9,-15.6 -34.9,-34.9 0,-19.3 15.6,-34.9 34.9,-34.9 19.3,0 34.9,15.6 34.9,34.9 0,19.2 -15.6,34.9 -34.9,34.9"
         id="path908" />
      <path
         style="fill:#e535ab"
         inkscape:connector-curvature="0"
         d="m 200,74 c -19.3,0 -34.9,-15.6 -34.9,-34.9 0,-19.3 15.6,-34.9 34.9,-34.9 19.3,0 34.9,15.6 34.9,34.9 0,19.3 -15.6,34.9 -34.9,34.9"
         id="path910" />
    </g>
  </g>
  <g
     inkscape:groupmode="layer"
     id="layer4"
     inkscape:label="Layer 4"
     style="display:none">
    <path
       d="M 17.309646,39.407885 C 15.777589,38.202877 14.143307,37.047539 13.026547,35.420687 10.676681,32.551766 8.8673972,29.230182 7.6304961,25.739606 6.8828737,23.469867 6.6268258,21.036431 5.663041,18.854398 4.6548265,17.269573 5.8358122,15.537103 7.5717856,15.033337 8.3446779,14.884994 9.7036635,14.155987 8.0632296,14.677046 6.5925295,15.756071 6.4501973,13.697588 7.9582859,13.56724 8.9874839,13.43044 9.3663554,12.587899 9.0144,11.829427 7.9096123,11.108977 11.693358,10.317193 9.7895287,9.242181 7.8062532,7.102447 12.563708,6.6905428 11.389969,9.120624 c -0.280953,1.868633 3.324307,-0.3424821 2.487802,1.815383 0.850215,1.03628 3.18384,0.23586 3.125947,1.689666 1.238542,0.08514 1.663615,1.127244 2.826281,1.20725 1.204986,0.544165 3.389434,0.972976 3.799468,2.330862 -1.19548,0.94646 -3.963797,-1.955019 -4.096792,0.664891 0.361141,3.870219 0.269135,7.857049 1.685137,11.542649 0.66976,2.231656 2.293424,3.988394 3.759772,5.726507 1.40299,1.702262 3.303401,2.900579 5.240388,3.909623 1.699151,0.80135 3.531036,1.332834 5.382823,1.666324 0.751089,-0.574492 2.077117,-2.71032 3.248807,-1.809688 0.05558,1.011957 -2.325593,2.115425 -0.112021,2.003582 1.299788,-0.392108 2.20131,1.005214 3.271658,-0.255173 0.986103,1.168059 4.098676,-0.746299 3.397037,1.641228 -0.948769,0.61212 -2.332494,0.242239 -3.282822,1.084307 -1.566838,-0.782579 -2.814273,0.700244 -4.548872,0.512718 -1.926356,0.345032 -3.886108,0.48431 -5.839119,0.487335 -3.204031,-0.25315 -6.475919,-0.359858 -9.523965,-1.475396 -1.717073,-0.498946 -3.392736,-1.476649 -4.901852,-2.454807 z m 2.705953,1.172443 c 1.676666,0.725086 3.316141,1.489276 5.153656,1.719788 2.915233,0.405464 5.925749,1.029114 8.851439,0.460227 -1.324128,-0.597906 -2.693062,0.232933 -4.012203,-0.42754 -1.582153,0.340444 -3.279976,-0.08673 -4.8884,-0.297037 -1.829063,-0.814727 -3.802924,-1.374954 -5.515759,-2.432486 -2.140256,-0.781736 1.106912,1.002525 1.684898,1.147036 1.337938,0.759418 -1.471297,-0.389301 -1.867334,-0.704995 -1.120599,-0.628602 -1.26341,-0.497254 -0.110967,0.141136 0.23212,0.135858 0.461495,0.278181 0.70467,0.393871 z m -3.190393,-2.254654 c 1.62474,0.601804 -0.0072,-1.142552 -0.751685,-1.041194 -0.32986,-0.572272 -1.260256,-0.933791 -0.603949,-1.241201 -1.18057,0.409847 -1.236698,-1.558545 -1.791622,-1.277316 -1.24894,-0.394371 -0.486088,-1.791412 -1.973795,-2.649334 -0.1358,-0.904009 -1.478101,-1.688096 -1.9062369,-3.051654 -0.1890894,-0.69814 -1.5165101,-2.702963 -0.701073,-0.83717 0.6943038,1.796136 1.9158749,3.334312 2.9324579,4.870729 0.789374,1.462851 1.721456,2.991699 3.159058,3.904259 0.484604,0.464868 0.952498,1.177161 1.636845,1.322881 z m -4.680533,-5.138855 c 0.05671,-0.24536 0.297152,0.531053 0,0 z m 6.626303,5.860267 c 0.359781,-0.161105 -0.517357,-0.202969 0,0 z m 0.881983,0.321727 c -0.09135,-0.444244 -0.402622,0.248407 0,0 z m 1.103982,0.460509 c 0.525595,-0.50044 -0.809993,-0.315539 0,0 z m 1.892157,1.054593 c 0.319387,-0.472077 -1.022189,-0.178156 0,0 z m -3.633455,-2.532867 c 0.81635,-0.52811 -1.054409,-0.0073 0,0 z m 0.828193,0.412966 c -0.02315,-0.279196 -0.295161,0.125035 0,0 z m 4.139225,2.583513 c 0.665404,0.419927 3.885688,0.920405 1.869201,0.172193 -0.337405,0.07113 -3.739054,-0.962156 -1.869201,-0.172193 z M 17.4119,36.229724 c -0.0647,-0.280006 -1.03284,-0.309136 0,0 z m 1.92696,1.123051 c 0.501491,-0.349772 -1.040883,-0.269784 0,0 z m 1.620844,0.99381 c 0.719645,-0.271315 -1.167429,-0.272595 0,0 z m -4.331907,-2.970838 c 0.780809,0.598794 3.148943,0.07673 1.195768,-0.357453 -0.888973,-0.473866 -2.892529,-0.798224 -1.526868,0.285744 l 0.331099,0.07172 z m 5.429711,3.313984 c 0.325242,-0.554124 -1.363907,-0.316439 0,0 z m -1.649924,-1.311282 c 1.909265,0.540092 -1.60552,-1.207388 -0.471071,-0.198741 l 0.251436,0.113779 0.219637,0.08497 z m 3.307966,1.911916 c 1.808182,0.01725 -1.633214,-0.249274 0,2e-6 z m -7.783475,-4.960768 c -0.07063,-0.33681 -0.446216,0.02823 0,0 z M 26.774236,41.0061 c 0.04818,-0.608303 -0.590095,0.452653 0,0 z m -7.756431,-4.786838 c -0.109369,-0.32031 -0.564979,-0.01308 0,0 z m -2.914249,-2.100985 c 1.038079,-0.06233 -1.421204,-0.45741 0,0 z m -3.452317,-2.231541 c -0.129206,-0.497632 -1.129589,-0.894527 0,0 z m 9.063149,5.751741 c -0.19013,-0.216841 -0.08944,0.04743 0,0 z m 5.641221,3.461797 c -0.01813,-0.33136 -0.307238,0.125421 0,0 z M 21.21514,37.122928 c 0.101544,-0.426934 -0.885167,-0.129263 0,0 z M 17.012522,34.45949 c 0.77227,-0.08269 -1.237142,-0.522088 0,0 z m 7.109119,4.417437 c 1.203479,-0.476784 -1.17297,-0.232757 0,0 z M 20.42378,36.366756 c 1.387008,0.178829 -1.650332,-0.94341 -0.304322,-0.100417 l 0.304319,0.100425 z m 4.820489,2.963998 c 1.294938,-0.774156 0.868016,1.81282 2.196937,0.218546 1.310865,-0.95712 -1.132043,1.183299 0.483537,0.170654 1.168383,-0.781442 2.894115,0.370431 3.984334,0.746269 0.784007,-0.03852 1.546181,0.67793 2.349915,0.242065 1.547199,-0.41673 -3.025512,-0.618082 -1.826843,-1.357453 -1.415696,0.41203 -2.461674,-0.491207 -3.158295,-1.39801 -1.587996,-0.366694 -3.42408,-1.178565 -4.216611,-2.583888 -0.323132,-0.527645 0.466799,0.07434 -0.278938,-0.788174 -0.956897,-0.851095 -1.434701,-1.817215 -2.077068,-2.85178 -0.76738,-0.409378 -0.856781,-1.614362 -0.934357,-0.04039 0.006,-0.993351 -0.926511,-1.661948 -1.154137,-1.384021 -0.0041,-0.956655 0.998048,-0.47712 0.296525,-1.184935 -0.150995,-0.991538 -0.648159,-2.024745 -0.797593,-3.144233 -0.232179,-0.539637 -0.0327,-1.695397 -0.792433,-0.473791 -0.276792,1.291054 -0.09187,-1.586558 0.338569,-0.637635 0.564969,-0.968288 -0.202829,-0.854406 -0.234284,-0.719952 0.368025,-0.816986 0.232934,-1.97583 -0.09603,-1.533739 0.196104,-0.865906 0.309808,-3.18678 -0.293505,-2.775492 0.365715,-0.905479 0.693564,-4.143293 -0.894044,-2.90882 -0.643427,0.009 -1.757652,0.233565 -2.284343,0.495503 1.651399,0.910296 -0.166106,0.328739 -0.838336,0.184058 -0.08759,0.842298 -0.75342,0.478009 -1.585259,0.486266 1.328624,0.164381 -0.64698,1.358855 -1.409171,0.894864 -0.989874,0.4731 0.854284,1.654037 0.01986,2.019168 0.102547,0.550483 -1.516487,-0.198794 -1.389334,1.07247 -0.9609736,-0.40426 -0.132322,1.508015 0.348452,0.86127 1.634439,0.442352 1.150607,1.450865 1.192227,2.408866 -0.266309,0.558227 -1.314785,-1.312142 -0.23351,-1.225519 -0.853043,-1.385736 -0.943618,-0.500881 -1.652466,0.142874 -0.164911,0.04675 1.808114,0.915956 0.569939,1.345755 1.089337,0.168084 1.120331,1.121358 1.342091,1.724582 0.654751,0.681959 0.520746,-0.753026 1.304177,0.06652 -0.495762,-0.730133 -2.625962,-2.057205 -0.910864,-1.631581 -0.0092,-0.734848 -0.310193,-1.327412 0.215268,-1.313037 0.520352,-0.94236 -0.544974,2.323467 0.627933,1.125809 0.324682,-0.141773 0.405101,-0.943554 0.988705,0.07571 0.847651,0.833879 0.306176,1.438129 -0.889535,0.674589 0.213924,0.725706 1.599555,0.985047 1.339161,2.119914 0.276043,0.998139 0.662252,0.630506 0.998896,0.572799 0.264079,0.969809 0.414039,0.256688 0.426565,-0.204818 1.209146,0.258841 0.925924,0.973595 1.30426,1.472962 0.833201,0.376083 -1.192598,-2.549235 0.237869,-0.879623 1.50499,1.358778 0.564415,1.925979 -0.78617,1.708298 0.854813,-0.06906 1.130475,1.155643 2.199698,1.112615 0.975031,0.463846 1.635172,2.245398 -0.04547,1.503775 -0.582916,-0.52558 -2.645718,-1.173958 -0.960884,-0.174246 1.556112,0.720609 2.792026,1.151702 4.292834,2.056249 1.074077,0.766769 1.538117,1.644999 1.945217,1.818845 -0.902723,0.43117 -2.72044,-0.344303 -1.370676,-0.581957 -0.841885,-0.153357 -1.788797,-0.579098 -0.982407,0.469848 0.68569,0.572507 2.429306,0.511857 2.741879,0.576726 -0.264944,0.583787 -0.719657,0.630215 0.01081,0.675493 -0.81497,0.43431 0.261326,0.501559 0.336849,0.749724 z m -1.666541,-4.706248 c -0.495838,-0.518541 -0.62404,-1.489792 -0.08806,-0.644668 0.274867,0.110379 0.880507,1.587187 0.08806,0.644668 z m 5.427311,3.447528 c 0.309273,-0.02003 0.009,0.234958 0,0 z m -6.210221,-4.718969 c -0.01901,-0.783963 0.179353,0.604681 0,0 z m -0.539404,-0.725747 c -0.623671,-1.205044 0.786249,0.341267 0,0 z m -6.536738,-4.511647 c 0.366402,-0.09771 0.180264,0.626655 0,0 z m 5.202406,2.81988 c 0.225019,-0.845011 0.264435,0.709019 0,0 z m -3.675342,-2.55562 c -0.259095,-0.466289 0.541948,0.437312 0,0 z m 3.154224,1.011137 c -0.590862,-1.323777 0.418317,-0.723083 0.130721,0.216955 z m -5.439485,-3.627587 c -0.264162,-0.434297 -0.701134,-1.708592 -0.560455,-2.097604 0.127267,0.633547 1.347273,2.726469 0.598448,0.866979 -0.827517,-1.558743 0.989178,0.505952 1.176051,0.894737 0.08702,0.386762 -0.510556,-0.105665 -0.105652,0.801197 -0.738404,-1.032487 -0.435908,0.570322 -1.108392,-0.465309 z M 13.279374,24.60509 c 0.0692,-1.009799 0.384844,0.692436 0,0 z m 0.756177,0.260301 c 0.360844,-0.762178 0.611844,1.062543 0,0 z m -1.819004,-1.407139 c -0.62588,-0.621938 -1.078802,-1.195251 0.02929,-0.385997 0.42697,0.01667 -0.948616,-1.303753 0.102824,-0.419304 1.105628,0.201593 0.545965,1.812814 -0.132106,0.805301 z m 0.9555,-0.02498 c 0.363465,-0.360181 0.192957,0.354558 0,0 z m 0.587932,0.188482 c -0.551031,-1.032853 0.668766,0.433014 0,0 z m -1.168774,-1.116945 c -1.819483,-1.619212 2.286295,0.846689 0.297249,0.300195 l -0.29726,-0.300179 z m 5.213091,3.028917 c -0.787357,-0.472094 -0.208651,-3.323516 0.05986,-1.373347 0.765433,-0.24761 -0.04227,1.007162 0.528645,0.995549 -0.08997,0.791681 -0.345384,1.076305 -0.588501,0.377798 z m 1.928203,1.139611 c 0.07722,-0.859334 0.162518,0.587518 0,0 z m -0.334926,-0.330922 c 0.08669,-0.367111 0.009,0.432309 0,0 z m -6.449446,-4.369683 c -1.168897,-1.612723 3.397119,1.631336 0.748659,0.409048 -0.276745,-0.07238 -0.609733,-0.09822 -0.748659,-0.409048 z m 3.713069,1.968655 c -0.110615,-1.357939 0.247025,0.22509 -4e-5,-3e-6 z m 2.819079,1.80842 c 0.218163,-0.773511 0.01626,0.511695 0,0 z m -6.353087,-4.39257 c 0.69472,-0.14859 2.879024,1.220093 0.873135,0.39096 -0.22288,-0.246735 -0.698008,-0.134633 -0.873135,-0.39096 z m 5.96577,2.973366 c 0.07426,-1.388531 0.414745,-0.829399 0.0025,0.198757 l -0.0025,-0.198755 -10e-6,-2e-6 z m -5.448632,-3.456534 c 0.283061,-0.415214 -0.751409,-1.877259 0.149119,-0.524443 0.389112,0.309181 1.126622,0.517954 0.475467,0.648025 1.024091,0.903418 -0.249774,0.244804 -0.624586,-0.123582 z m 5.153562,3.022813 c 0.195555,-1.581749 0.172453,0.926704 0,0 z m -5.74474,-4.483754 c 0.21621,-0.0924 0.114184,0.288086 0,0 z m 1.344267,0.800107 c 0.345954,-0.725932 0.638197,0.809614 0,0 z m 3.791844,2.109354 c -0.0036,-0.278799 0.07154,0.405545 0,0 z m -0.219648,-0.486276 c -0.526296,-1.298406 0.489546,0.687445 0,0 z m -0.323148,-0.851286 c -0.08834,-0.536517 0.300243,0.674037 -1.4e-5,-3e-6 z m 0.525908,-0.854893 c -0.361149,-0.636435 0.456062,-2.804631 0.547252,-1.459935 -0.381181,1.047759 -0.109962,1.633898 0.155955,0.228558 0.491069,-1.106016 -0.106076,2.182521 -0.703215,1.231381 z m 0.540451,-3.224463 c 0.157436,-0.193325 0.03494,0.23291 0,0 z m -0.902544,17.784546 c -0.214077,-0.186824 0.02689,0.118879 0,0 z m 1.859303,0.940548 c 1.03424,0.265366 1.028953,-0.160915 0.09421,-0.287558 -0.502772,-0.467714 -2.0892,-0.963813 -0.669268,-0.05804 0.09404,0.23821 0.391195,0.23266 0.575054,0.345594 z m -3.67206,-2.438963 c 0.569767,0.42488 2.146159,1.204178 0.811694,0.161716 0.449923,-0.522731 -0.861166,-0.800973 -0.426249,-1.15064 -1.106229,-0.676917 -0.872659,-0.616701 -0.09764,-0.595403 -1.32949,-0.594253 0.191904,-0.549801 0.120268,-0.854296 -0.512643,-0.101249 -2.54628,-0.903939 -1.349901,0.06593 -1.216197,-0.620105 -0.289822,0.230998 -0.657421,0.141018 -1.243642,-0.339092 1.107538,0.947193 -0.197515,0.627882 0.713476,0.565405 1.920437,1.448261 0.301642,0.598345 -0.213288,0.307019 1.158427,0.77239 1.495122,1.005442 z m 1.944608,1.117159 c 2.364443,0.761929 -1.159214,-0.930859 0,0 z m 9.954553,6.03048 c 0.03054,-0.469081 -0.323156,0.400151 0,0 z m 1.023148,0.430609 c 0.545511,-0.528597 0.02234,0.841999 0.903916,-0.129404 0.0095,-0.695407 -0.02712,-1.106157 -1.013121,-0.261405 -0.271805,0.150735 -0.393145,0.791646 0.109205,0.390809 z M 12.678587,30.570251 c -0.16754,-0.658583 -1.174347,-0.65517 0,0 z m 1.092524,0.71592 c -0.405702,-0.672676 -1.447545,-0.608993 0,0 z m 6.215416,3.748384 c 0.606829,0.538999 2.787067,0.395486 0.737037,0.06632 -0.303627,-0.448927 -1.92798,-0.340882 -0.737037,-0.06632 z m 8.544143,5.276722 c 0.933956,-0.783701 -0.904902,0.34962 0,0 z m 1.942425,1.334822 c 0.0055,-0.251498 -0.402575,0.11011 0,0 z m 0.0032,-0.352096 c 1.03424,-1.095813 -1.002156,0.06482 -8e-6,0 z M 9.9914587,28.320632 C 9.1099664,27.062909 9.4434978,26.497573 8.5934367,25.470625 8.4325121,24.68531 7.1351318,22.903269 7.9224044,24.791199 8.6434999,25.895364 8.857778,27.604931 9.9914587,28.320632 Z M 30.151673,40.945655 c 1.902764,-1.229846 -0.781042,-0.535722 0,0 z m 1.452504,0.569003 c 0.952849,-0.818109 -0.60273,-0.171113 0,0 z M 12.354749,29.180043 c 0.272698,-0.405698 -0.704288,-0.05189 0,0 z M 31.3009,41.126156 c 0.922578,-0.594848 -0.212567,-0.503519 -0.16722,0.0547 z M 18.780203,33.234324 c -0.03172,-0.401671 -0.487191,0.0341 0,0 z m 0.773776,0.445231 c -0.245913,-0.497172 -0.378092,0.0781 0,0 z m 13.227294,7.848593 c 1.18194,-0.852646 -0.716483,-0.163244 -0.248101,0.161542 z m -0.452598,-0.218754 c 0.962845,-0.806831 -1.01654,0.357554 0,0 z m 2.312448,1.539966 c 0.646464,-0.433001 -0.78539,-0.140063 0,0 z M 12.947639,28.887492 c 0.866561,0.194153 3.462983,2.134102 1.931203,0.134165 -0.784516,-0.232229 -0.31402,-2.149914 -1.114232,-1.81051 0.537101,0.897261 0.441901,1.279165 -0.685773,0.713493 -1.417307,-0.691851 -0.796485,0.34286 -0.519497,0.628029 -0.377464,0.08578 0.499287,0.327609 0.388299,0.334823 z M 8.9996214,25.769564 c 0.1551382,-0.641649 -1.4284601,-3.529973 -0.7477981,-1.447257 0.2456989,0.436277 0.2207183,1.263111 0.7477981,1.447257 z m 7.2463076,4.467506 c -0.446218,-0.373173 -0.0212,-0.05281 0,0 z m 1.09883,0.255716 c -6.32e-4,-0.679703 -1.214594,-0.276014 0,0 z m 9.522239,6.002897 c -0.18162,-0.464398 -0.717892,-0.01078 1.5e-5,7e-6 z m 0.457265,0.334022 c -0.06751,-0.25992 -0.263814,0.05018 0,0 z m 3.774295,2.377346 c 0.36301,-0.268179 -0.452987,-0.03424 0,0 z M 10.971684,26.273021 c 1.03829,-0.401983 -1.1124504,-0.286642 0,0 z m 15.057038,9.486027 c -0.01153,-0.672171 -0.661906,0.166757 0,0 z M 10.561457,25.317073 c 0.666949,-0.225286 -0.6169818,-0.148386 0,0 z m 1.935846,0.93773 c -0.01209,-0.22093 -0.204775,0.08362 0,0 z m 23.611551,14.478925 c 0.857631,-0.173882 2.811992,0.436521 3.127873,-0.227395 -1.041484,-0.02529 -3.603299,-0.734789 -3.724504,0.169314 l 0.227985,0.03592 0.368646,0.02216 z M 13.112561,26.409852 c 0.01492,-0.681125 -0.531148,-0.02543 0,0 z M 8.0227364,22.879146 c -0.2311481,-1.297731 -0.8791458,-0.196407 0,0 z m 1.2137395,0.305083 c 0.014906,-0.416705 -1.1109394,-0.374952 0,0 z m 0.6936137,0.340658 c -0.200498,-0.162407 -0.1569371,0.205168 0,0 z m 4.3643314,2.799721 c 0.205465,-0.188751 -0.48643,-0.139809 0,0 z M 9.4681088,22.756592 c -0.1173144,-0.980167 -1.4057765,-0.146857 0,0 z M 6.9797512,21.142008 c -0.035392,-0.452364 -0.2424921,0.170643 0,0 z m 0.3701341,-0.27953 c -0.060384,-0.536388 -0.3177863,0.06825 0,0 z m 2.0450875,1.220734 C 10.259749,21.743517 7.8197834,21.380567 9.2182739,22.019035 Z M 36.765265,38.989389 c 0.553502,-0.507464 -0.703459,-0.156897 0,0 z m 3.306526,1.71397 c 0.221814,-0.6561 -0.558464,0.08638 0,0 z M 9.6039759,21.011313 c 0.0911,-0.634678 -0.6855871,0.126024 0,0 z m -2.909662,-1.949449 c -0.1563068,-0.896042 -0.134927,-2.468854 1.3601524,-1.937326 -1.9956828,0.396223 1.3812346,2.480434 0.9547924,0.834874 0.8391371,0.04108 1.6415483,-0.495931 1.2011783,0.319027 1.653347,-0.182604 2.79959,-1.616291 4.396613,-1.415388 1.244006,-0.164625 2.604159,-0.289479 3.944732,-0.790231 1.102206,-0.0794 2.16323,-1.266096 1.55908,-1.969473 -1.503092,-0.127181 -3.07651,0.06089 -4.737844,0.3911 -1.840967,0.382711 -3.513184,1.109833 -5.370679,1.421948 -1.8105297,0.243212 0.364173,0.670103 -0.1544355,0.76521 -0.9447622,0.327804 1.1267035,0.548857 -0.1224807,0.894426 -0.7714721,-0.146686 -1.5744764,-0.411756 -1.2449375,-1.224747 -1.7343301,0.225051 -3.2583084,0.944856 -1.888083,2.70976 l 0.1019101,8.64e-4 z m 4.1791051,-2.128399 c 0.40664,-1.498023 2.178562,1.23269 0.666503,0.198974 -0.180603,-0.135162 -0.477632,-0.245429 -0.666503,-0.198974 z m 0.07911,-0.726282 c 0.586896,-0.437231 0.311989,0.24513 0,0 z m 0.74522,0.01182 c 0.05298,-0.689314 1.705941,0.364921 0.272555,0.248147 z m 1.019395,-0.409867 c 0.372268,-0.434972 0.107005,0.386907 0,0 z m 0.260782,-0.174629 c 0.619867,-0.744799 3.510364,-0.47534 1.394621,-0.07262 -0.567095,-0.426942 -1.001801,0.251739 -1.394621,0.07262 z m 3.772168,-0.581472 c -0.09429,-2.034449 1.874041,0.722974 0,0 z m 1.070331,-0.0059 c 0.391315,-1.025387 1.518558,-0.411462 0.181082,-0.206051 0.02904,0.109118 -0.03922,0.529358 -0.181082,0.206051 z m -8.6385143,5.437802 c 1.1692073,-0.715977 -1.2412472,-0.621164 0,0 z m 0.8645083,0.24023 c 0.409933,-0.435891 -0.8907308,-0.176799 0,0 z M 7.4991774,18.917421 c 0.6680848,-0.513209 -0.7905858,-0.195123 0,0 z M 42.023496,40.515835 c 0.01932,-0.595425 -0.510635,0.268315 0,0 z m -3.508112,-2.39402 c 0.09976,-0.685522 -0.450816,0.05976 0,0 z m 4.472785,2.624887 c 0.934092,0.0032 2.830209,-0.290085 0.797812,-0.289154 -0.318926,0.04974 -1.858332,0.03907 -0.797804,0.289147 z M 10.806858,20.305048 c 0.755959,-0.05192 1.182744,-0.83388 -0.146202,-0.788931 -2.0596358,-0.213231 1.817184,0.70523 -0.264219,0.442609 -0.279675,0.185211 0.394176,0.397567 0.410421,0.346322 z m 0.665781,0.336981 c -0.07893,-0.485367 -0.233766,0.257843 0,0 z m 0.789756,-2.105912 c 0.328046,-0.406892 -0.453943,-0.108777 0,0 z M 9.7482953,14.33367 c 1.3491597,-0.458977 3.1941137,-0.974723 3.8311407,0.22599 -0.648312,-0.780295 -0.261635,-1.54845 0.350699,-0.407597 0.865847,1.154301 1.299307,-0.525008 0.736148,-0.912182 0.641767,0.797401 1.371705,1.174205 0.429692,0.05039 1.023658,-1.231356 -2.049697,0.161244 -2.748253,0.147222 -0.336099,0.150857 -3.4699629,0.79922 -2.5994267,0.896168 z m 0.7906837,-1.5143 c 0.769437,-0.580745 2.661126,0.345447 1.44724,-0.577158 -0.118681,-0.104832 -2.6584128,0.699624 -1.44724,0.577158 z m 2.805137,0.11581 c 0.90052,0.02298 -0.388434,-1.209762 0.684649,-0.651169 -0.176236,-0.57574 -1.249371,-0.683523 -1.774013,-0.913547 -0.296741,0.526388 0.604003,1.57179 1.089364,1.564716 z M 11.03085,10.388818 c 0.311537,-0.4223227 -0.545987,0.214106 0,0 z m 1.1465,0.274415 c 1.451193,-0.19248 -0.369914,-0.624953 -0.292424,-0.01546 l 0.292424,0.01546 v -2e-6 z M 10.036602,8.988148 C 9.0148016,7.6542769 11.958234,9.2123678 10.920085,7.8157584 10.046311,7.1199719 9.2066667,8.5987569 10.036602,8.988148 Z m 13.113184,7.063139 c 0.468653,-0.8308 -1.934884,-1.11987 -0.31576,-0.294448 0.149073,0.04981 0.115328,0.351908 0.31576,0.294448 z"
       id="path2900"
       style="fill:#000000;stroke-width:0.21038277"
       inkscape:connector-curvature="0" />
  </g>
  <g
     inkscape:groupmode="layer"
     id="layer5"
     inkscape:label="Layer 5">
    <g
       style="fill:#36414c;fill-opacity:1;fill-rule:nonzero"
       id="frappe-logo"
       transform="matrix(0.58250146,0,0,0.58250146,-0.02986022,-0.64635956)">
      <path
         inkscape:connector-curvature="0"
         d="m 18.908441,17.38814 c -0.0225,-6.4e-4 -0.044,0.004 -0.0661,0.005 -0.0529,-0.003 -0.10684,-0.002 -0.16123,0.006 -0.18178,0.0266 -0.36811,0.11892 -0.53743,0.29714 l -0.11783,0.15709 -8.73176,11.64684 c -0.39312,0.53015 -0.0241,1.37775 0.76894,1.28829 l 9.48883,-1.3534 2.02675,14.21205 c 0.0388,0.2895 0.19171,0.50837 0.39429,0.64389 0.0165,0.15551 0.0813,0.31355 0.21291,0.45372 l 14.67817,14.93242 c 0.0954,0.0946 0.20618,0.15694 0.32194,0.19482 l 11.70678,11.90935 c 0.59501,0.55906 1.55355,0.16002 1.5534,-0.66198 l 0.19533,-23.90603 27.27896,-26.86141 c 0.55028,-0.52351 0.14306,-1.37969 -0.53847,-1.35754 l -29.56409,-0.23926 c -0.31327,-0.002 -0.49347,0.15963 -0.56482,0.22789 l -19.93574,19.63085 6.69882,-8.93538 c 0.35743,-0.48966 0.15207,-1.0412 -0.18603,-1.29604 L 19.428871,17.56657 c -0.17411,-0.11887 -0.35187,-0.17353 -0.52038,-0.17828 z"
         id="path846"
         style="fill:#36414c;fill-opacity:1" />
    </g>
  </g>
</svg>
